# xmcd
#
# Track frame offsets: 
#        150
#        19415
#        38701
#        56126
#        80969
#        99561
#        117814
#        134115
#
# Disc length: 2093 seconds
#
# Revision: 1
# Processed by: cddbd v1.5.2PL0 Copyright (c) Steve Scherf et al.
# Submitted via: ExactAudioCopyFreeDBPlugin 1.0
#
DISCID=73082b08
DTITLE=Shadow - Shadow
DYEAR=1980
DGENRE=Funk
TTITLE0=Mystery Dancer
TTITLE1=I Can't Keep Holding Back (My Love)
TTITLE2=Hot City
TTITLE3=You Can Do It
TTITLE4=Can You Keep It Up
TTITLE5=Sweet Movin' (In My Life)
TTITLE6=Beyond The Finish Line
TTITLE7=Village Destiny
EXTD=
EXTT0=
EXTT1=
EXTT2=
EXTT3=
EXTT4=
EXTT5=
EXTT6=
EXTT7=
PLAYORDER=
